<svg width="38" height="38" viewBox="0 0 38 38" fill="none" xmlns="http://www.w3.org/2000/svg">
<path d="M29.8852 9.01321C29.9932 8.90455 30.0789 8.77555 30.1374 8.63358C30.1958 8.49161 30.2259 8.33944 30.2259 8.18577C30.2259 8.03211 30.1958 7.87994 30.1374 7.73797C30.0789 7.596 29.9932 7.467 29.8852 7.35834C29.7772 7.24968 29.649 7.16349 29.5079 7.10468C29.3668 7.04588 29.2155 7.01561 29.0628 7.01561C28.91 7.01561 28.7588 7.04588 28.6176 7.10468C28.4765 7.16349 28.3483 7.24968 28.2403 7.35834L18.6003 17.058L8.96022 7.35834C8.74209 7.13889 8.44624 7.01561 8.13776 7.01561C7.82927 7.01561 7.53342 7.13889 7.31529 7.35834C7.09715 7.57779 6.97461 7.87543 6.97461 8.18577C6.97461 8.49612 7.09715 8.79376 7.31529 9.01321L16.9568 18.7114L7.31529 28.4096C7.09715 28.6291 6.97461 28.9267 6.97461 29.2371C6.97461 29.5474 7.09715 29.845 7.31529 30.0645C7.53342 30.2839 7.82927 30.4072 8.13776 30.4072C8.44624 30.4072 8.74209 30.2839 8.96022 30.0645L18.6003 20.3648L28.2403 30.0645C28.4584 30.2839 28.7543 30.4072 29.0628 30.4072C29.3712 30.4072 29.6671 30.2839 29.8852 30.0645C30.1034 29.845 30.2259 29.5474 30.2259 29.2371C30.2259 28.9267 30.1034 28.6291 29.8852 28.4096L20.2437 18.7114L29.8852 9.01321Z" fill="black"/>
</svg>
