<svg width="38" height="38" viewBox="0 0 38 38" fill="none" xmlns="http://www.w3.org/2000/svg">
<path d="M28.5 28.5L22.1667 22.1667M9.5 16.8889C9.5 17.8592 9.69112 18.82 10.0624 19.7165C10.4338 20.613 10.978 21.4275 11.6642 22.1136C12.3503 22.7997 13.1648 23.344 14.0613 23.7153C14.9577 24.0867 15.9186 24.2778 16.8889 24.2778C17.8592 24.2778 18.82 24.0867 19.7165 23.7153C20.613 23.344 21.4275 22.7997 22.1136 22.1136C22.7997 21.4275 23.344 20.613 23.7153 19.7165C24.0867 18.82 24.2778 17.8592 24.2778 16.8889C24.2778 15.9186 24.0867 14.9577 23.7153 14.0613C23.344 13.1648 22.7997 12.3503 22.1136 11.6642C21.4275 10.978 20.613 10.4338 19.7165 10.0624C18.82 9.69112 17.8592 9.5 16.8889 9.5C15.9186 9.5 14.9577 9.69112 14.0613 10.0624C13.1648 10.4338 12.3503 10.978 11.6642 11.6642C10.978 12.3503 10.4338 13.1648 10.0624 14.0613C9.69112 14.9577 9.5 15.9186 9.5 16.8889Z" stroke="#999999" stroke-width="2" stroke-linecap="round" stroke-linejoin="round"/>
</svg>
