<svg width="30" height="28" viewBox="0 0 30 28" fill="none" xmlns="http://www.w3.org/2000/svg">
<path d="M16.9718 0C18.6054 0.00417106 19.4345 0.0125132 20.1503 0.0319781L20.432 0.0417106C20.7573 0.0528334 21.0782 0.0667369 21.4659 0.0834211C23.0108 0.152939 24.065 0.386518 24.99 0.729936C25.9483 1.08309 26.7556 1.56137 27.563 2.33301C28.3016 3.02782 28.873 3.86862 29.2372 4.79672C29.5958 5.68237 29.8398 6.69177 29.9124 8.1725C29.9298 8.54233 29.9443 8.8496 29.9559 9.16243L29.9646 9.43216C29.9864 10.1162 29.9951 10.9101 29.998 12.4743L29.9995 13.5115V15.3328C30.003 16.3469 29.9919 17.3611 29.9661 18.3749L29.9574 18.6446C29.9458 18.9575 29.9312 19.2647 29.9138 19.6346C29.8412 21.1153 29.5944 22.1233 29.2372 23.0104C28.873 23.9384 28.3016 24.7793 27.563 25.4741C26.8373 26.1813 25.9592 26.7284 24.99 27.0771C24.065 27.4206 23.0108 27.6541 21.4659 27.7236L20.432 27.7654L20.1503 27.7737C19.4345 27.7932 18.6054 27.8029 16.9718 27.8057L15.8886 27.8071H13.9879C12.9283 27.8106 11.8687 27.8 10.8094 27.7751L10.5277 27.7668C10.183 27.7543 9.83841 27.7399 9.49388 27.7236C7.94892 27.6541 6.89474 27.4206 5.96834 27.0771C4.99959 26.7282 4.122 26.1812 3.3968 25.4741C2.65763 24.7794 2.08577 23.9386 1.72115 23.0104C1.3625 22.1247 1.11856 21.1153 1.04596 19.6346L1.00239 18.6446L0.995135 18.3749C0.968368 17.3611 0.956266 16.347 0.958834 15.3328V12.4743C0.954815 11.4601 0.965464 10.446 0.990779 9.43216L1.00094 9.16243C1.01256 8.8496 1.02708 8.54233 1.0445 8.1725C1.11711 6.69177 1.36105 5.68376 1.7197 4.79672C2.08517 3.86824 2.65804 3.02741 3.39825 2.33301C4.12303 1.62609 5.00011 1.07902 5.96834 0.729936C6.89474 0.386518 7.94746 0.152939 9.49388 0.0834211C9.88012 0.0667369 10.2025 0.0528334 10.5277 0.0417106L10.8094 0.0333684C11.8682 0.00866567 12.9273 -0.00199474 13.9865 0.00139025L16.9718 0ZM15.4792 6.95177C13.5536 6.95177 11.707 7.68418 10.3454 8.98789C8.9839 10.2916 8.219 12.0598 8.219 13.9035C8.219 15.7473 8.9839 17.5155 10.3454 18.8192C11.707 20.1229 13.5536 20.8553 15.4792 20.8553C17.4047 20.8553 19.2513 20.1229 20.6129 18.8192C21.9744 17.5155 22.7393 15.7473 22.7393 13.9035C22.7393 12.0598 21.9744 10.2916 20.6129 8.98789C19.2513 7.68418 17.4047 6.95177 15.4792 6.95177ZM15.4792 9.73248C16.0512 9.73238 16.6177 9.84018 17.1462 10.0497C17.6748 10.2592 18.155 10.5664 18.5596 10.9537C18.9642 11.3409 19.2851 11.8007 19.5041 12.3067C19.7231 12.8127 19.8359 13.3551 19.836 13.9028C19.8361 14.4506 19.7235 14.993 19.5047 15.4991C19.2858 16.0052 18.9651 16.465 18.5606 16.8524C18.1562 17.2398 17.676 17.5471 17.1476 17.7568C16.6191 17.9665 16.0527 18.0745 15.4806 18.0746C14.3253 18.0746 13.2173 17.6351 12.4004 16.8529C11.5835 16.0707 11.1245 15.0098 11.1245 13.9035C11.1245 12.7973 11.5835 11.7364 12.4004 10.9542C13.2173 10.1719 14.3253 9.73248 15.4806 9.73248M23.1038 4.86624C22.6224 4.86624 22.1607 5.04934 21.8203 5.37527C21.48 5.7012 21.2887 6.14325 21.2887 6.60418C21.2887 7.06511 21.48 7.50716 21.8203 7.83309C22.1607 8.15902 22.6224 8.34212 23.1038 8.34212C23.5852 8.34212 24.0468 8.15902 24.3872 7.83309C24.7276 7.50716 24.9188 7.06511 24.9188 6.60418C24.9188 6.14325 24.7276 5.7012 24.3872 5.37527C24.0468 5.04934 23.5852 4.86624 23.1038 4.86624Z" fill="black"/>
</svg>
