<svg width="33" height="32" viewBox="0 0 33 32" fill="none" xmlns="http://www.w3.org/2000/svg">
<path d="M16.4164 0C25.0803 0 32.1025 5.95559 32.1025 13.3042C32.1025 20.6511 25.0803 26.6067 16.4179 26.6067C15.5555 26.6051 14.6939 26.5454 13.8382 26.4279L7.25369 31.114C6.50531 31.5448 6.24091 31.4977 6.54863 30.4427L7.88107 24.4644C3.57902 22.0913 0.733398 17.9789 0.733398 13.3042C0.733398 5.95721 7.7541 0 16.4179 0M25.2431 13.101L27.4389 10.7864C27.5657 10.6432 27.6363 10.4521 27.6361 10.2533C27.6359 10.0545 27.5648 9.86361 27.4378 9.72076C27.3107 9.5779 27.1377 9.49427 26.9552 9.48748C26.7726 9.48068 26.5947 9.55126 26.459 9.68433L23.5791 12.7174V10.211C23.5791 10.0075 23.5048 9.81236 23.3725 9.66848C23.2403 9.5246 23.061 9.44377 22.874 9.44377C22.687 9.44377 22.5077 9.5246 22.3754 9.66848C22.2432 9.81236 22.1689 10.0075 22.1689 10.211V14.3672C22.1441 14.486 22.1441 14.6093 22.1689 14.7281V17.0671C22.1689 17.2705 22.2432 17.4657 22.3754 17.6095C22.5077 17.7534 22.687 17.8343 22.874 17.8343C23.061 17.8343 23.2403 17.7534 23.3725 17.6095C23.5048 17.4657 23.5791 17.2705 23.5791 17.0671V14.8516L24.2169 14.1803L26.35 17.4848C26.4033 17.5673 26.4709 17.6376 26.5491 17.6916C26.6274 17.7457 26.7146 17.7824 26.8059 17.7998C26.8971 17.8171 26.9907 17.8147 27.0811 17.7928C27.1715 17.7708 27.2571 17.7297 27.3329 17.6717C27.4087 17.6138 27.4733 17.5401 27.523 17.455C27.5726 17.3699 27.6064 17.275 27.6223 17.1757C27.6383 17.0763 27.6361 16.9746 27.6159 16.8762C27.5957 16.7778 27.5579 16.6847 27.5047 16.6022L25.2431 13.101ZM20.8246 16.2283H18.6437V10.2354C18.6353 10.0382 18.5575 9.85213 18.4263 9.71582C18.2951 9.57951 18.1207 9.50345 17.9393 9.50345C17.758 9.50345 17.5836 9.57951 17.4524 9.71582C17.3212 9.85213 17.2434 10.0382 17.235 10.2354V16.9955C17.235 17.4181 17.5487 17.7627 17.9386 17.7627H20.8246C21.0115 17.7627 21.1909 17.6819 21.3231 17.538C21.4553 17.3941 21.5296 17.199 21.5296 16.9955C21.5296 16.7921 21.4553 16.5969 21.3231 16.453C21.1909 16.3092 21.0115 16.2283 20.8246 16.2283ZM12.0756 14.455L13.1152 11.6787L14.0682 14.4534L12.0756 14.455ZM15.8443 15.2466L15.8473 15.2206C15.8468 15.0273 15.779 14.8414 15.6576 14.7004L14.0951 10.1492C14.0296 9.93232 13.9049 9.74235 13.7375 9.60468C13.5702 9.467 13.3682 9.38819 13.1585 9.37875C12.9476 9.37865 12.7415 9.44798 12.5674 9.57766C12.3933 9.70733 12.2594 9.89127 12.1831 10.1053L9.70048 16.729C9.62976 16.9173 9.63071 17.1286 9.70313 17.3162C9.77554 17.5038 9.91349 17.6525 10.0866 17.7294C10.2597 17.8064 10.4539 17.8053 10.6263 17.7265C10.7987 17.6477 10.9353 17.4976 11.006 17.3092L11.502 15.9878H14.5941L15.0392 17.2881C15.0696 17.3853 15.1175 17.4749 15.1803 17.5515C15.2431 17.6282 15.3193 17.6904 15.4046 17.7344C15.4898 17.7784 15.5823 17.8033 15.6766 17.8077C15.7708 17.8121 15.8649 17.7958 15.9533 17.7599C16.0417 17.724 16.1226 17.6692 16.1911 17.5987C16.2597 17.5281 16.3145 17.4433 16.3524 17.3493C16.3903 17.2553 16.4105 17.154 16.4117 17.0513C16.413 16.9487 16.3953 16.8468 16.3597 16.7517L15.8443 15.2466ZM10.8806 10.2435C10.8809 10.1427 10.863 10.0429 10.8278 9.94975C10.7926 9.85659 10.7408 9.77191 10.6755 9.7006C10.6101 9.6293 10.5324 9.57277 10.4468 9.53427C10.3613 9.49577 10.2696 9.47606 10.177 9.47628H5.32972C5.14272 9.47628 4.96339 9.55711 4.83117 9.70099C4.69894 9.84486 4.62466 10.04 4.62466 10.2435C4.62466 10.447 4.69894 10.6421 4.83117 10.786C4.96339 10.9299 5.14272 11.0107 5.32972 11.0107H7.06249V17.0833C7.06249 17.2868 7.13677 17.4819 7.26899 17.6258C7.40122 17.7697 7.58055 17.8505 7.76754 17.8505C7.95454 17.8505 8.13387 17.7697 8.26609 17.6258C8.39832 17.4819 8.4726 17.2868 8.4726 17.0833V11.0107H10.1755C10.2682 11.0111 10.3601 10.9916 10.4458 10.9532C10.5315 10.9148 10.6094 10.8583 10.6749 10.7869C10.7405 10.7156 10.7924 10.6309 10.8277 10.5376C10.863 10.4443 10.8809 10.3444 10.8806 10.2435Z" fill="black"/>
</svg>
