<svg width="40" height="40" viewBox="0 0 40 40" fill="none" xmlns="http://www.w3.org/2000/svg">
<path d="M19.75 17.1667C20.4011 17.1667 21.0459 17.0384 21.6475 16.7892C22.249 16.5401 22.7956 16.1748 23.2561 15.7144C23.7165 15.254 24.0817 14.7074 24.3309 14.1058C24.5801 13.5042 24.7083 12.8595 24.7083 12.2083C24.7083 11.5572 24.5801 10.9124 24.3309 10.3109C24.0817 9.70929 23.7165 9.16269 23.2561 8.70226C22.7956 8.24184 22.249 7.87661 21.6475 7.62743C21.0459 7.37825 20.4011 7.25 19.75 7.25C18.435 7.25 17.1738 7.77239 16.2439 8.70226C15.3141 9.63213 14.7917 10.8933 14.7917 12.2083C14.7917 13.5234 15.3141 14.7845 16.2439 15.7144C17.1738 16.6443 18.435 17.1667 19.75 17.1667ZM7 31.9V32.75H32.5V31.9C32.5 28.7267 32.5 27.14 31.8823 25.9273C31.3391 24.8611 30.4722 23.9943 29.406 23.451C28.1933 22.8333 26.6067 22.8333 23.4333 22.8333H16.0667C12.8933 22.8333 11.3067 22.8333 10.094 23.451C9.0278 23.9943 8.16094 24.8611 7.61767 25.9273C7 27.14 7 28.7267 7 31.9Z" stroke="white" stroke-width="3" stroke-linecap="round" stroke-linejoin="round"/>
</svg>
