<?xml version="1.0" standalone="no"?>
<!DOCTYPE svg PUBLIC "-//W3C//DTD SVG 20010904//EN"
 "http://www.w3.org/TR/2001/REC-SVG-20010904/DTD/svg10.dtd">
<svg version="1.0" xmlns="http://www.w3.org/2000/svg"
 width="260.000000pt" height="260.000000pt" viewBox="0 0 260.000000 260.000000"
 preserveAspectRatio="xMidYMid meet">
<metadata>
Created by potrace 1.14, written by Peter Selinger 2001-2017
</metadata>
<g transform="translate(0.000000,260.000000) scale(0.100000,-0.100000)"
fill="#000000" stroke="none">
<path d="M797 2029 l-477 -239 2 -483 3 -482 495 -246 495 -246 483 245 482
244 -2 485 -3 486 -489 238 c-269 132 -494 239 -500 238 -6 0 -226 -108 -489
-240z m1104 -345 c91 -42 169 -141 169 -216 l0 -28 -105 0 c-93 0 -105 2 -105
18 -1 50 -76 87 -158 77 -79 -10 -117 -53 -96 -110 10 -25 70 -50 178 -75 122
-27 172 -48 221 -91 50 -45 75 -100 75 -172 0 -104 -50 -179 -150 -225 -47
-21 -74 -26 -177 -30 -104 -4 -132 -1 -191 17 -117 35 -187 113 -207 229 l-7
42 104 0 103 -1 20 -42 c26 -55 70 -77 151 -77 85 0 129 29 129 84 0 54 -26
71 -175 107 -174 43 -246 83 -284 157 -71 138 26 308 201 352 21 5 88 8 148 7
86 -2 120 -7 156 -23z m-796 -12 c63 -29 93 -57 116 -107 40 -87 12 -184 -67
-235 -27 -16 -56 -30 -66 -30 -35 0 -17 -17 23 -23 85 -11 159 -102 159 -195
0 -95 -42 -161 -135 -210 -50 -27 -50 -27 -312 -30 l-263 -3 0 415 c0 228 -3
422 -6 431 -6 15 15 16 247 13 240 -3 257 -4 304 -26z"/>
<path d="M772 1438 l3 -93 75 0 c89 0 135 17 156 57 12 24 13 36 4 64 -17 49
-52 64 -155 64 l-86 0 3 -92z"/>
<path d="M772 1108 l3 -103 95 0 c109 1 150 16 170 65 10 25 10 37 -1 68 -21
55 -62 72 -177 72 l-93 0 3 -102z"/>
</g>
</svg>
