<svg width="20" height="20" viewBox="0 0 20 20" fill="none" xmlns="http://www.w3.org/2000/svg">
<path fill-rule="evenodd" clip-rule="evenodd" d="M13.6416 9.42244C13.6416 11.93 11.6101 13.9627 9.10405 13.9627C6.59801 13.9627 4.56647 11.93 4.56647 9.42244C4.56647 6.91492 6.59801 4.88218 9.10405 4.88218C11.6101 4.88218 13.6416 6.91492 13.6416 9.42244ZM9.10405 14.8415C12.0951 14.8415 14.5199 12.4153 14.5199 9.42244C14.5199 6.4296 12.0951 4.00342 9.10405 4.00342C6.11298 4.00342 3.68823 6.4296 3.68823 9.42244C3.68823 12.4153 6.11298 14.8415 9.10405 14.8415ZM15.7259 16.0482C15.2708 16.5036 14.533 16.5036 14.0779 16.0482L12.9725 14.9422C13.6159 14.4963 14.1749 13.937 14.6205 13.2932L15.7259 14.3992C16.181 14.8546 16.181 15.5929 15.7259 16.0482Z" fill="white"/>
</svg>
