<svg width="40" height="40" viewBox="0 0 40 40" fill="none" xmlns="http://www.w3.org/2000/svg">
<path d="M32 32L24 24M8 17.3333C8 18.559 8.24141 19.7727 8.71046 20.905C9.1795 22.0374 9.86699 23.0663 10.7337 23.933C11.6004 24.7997 12.6292 25.4872 13.7616 25.9562C14.894 26.4253 16.1077 26.6667 17.3333 26.6667C18.559 26.6667 19.7727 26.4253 20.905 25.9562C22.0374 25.4872 23.0663 24.7997 23.933 23.933C24.7997 23.0663 25.4872 22.0374 25.9562 20.905C26.4253 19.7727 26.6667 18.559 26.6667 17.3333C26.6667 16.1077 26.4253 14.894 25.9562 13.7616C25.4872 12.6292 24.7997 11.6004 23.933 10.7337C23.0663 9.86699 22.0374 9.1795 20.905 8.71046C19.7727 8.24141 18.559 8 17.3333 8C16.1077 8 14.894 8.24141 13.7616 8.71046C12.6292 9.1795 11.6004 9.86699 10.7337 10.7337C9.86699 11.6004 9.1795 12.6292 8.71046 13.7616C8.24141 14.894 8 16.1077 8 17.3333Z" stroke="white" stroke-width="3" stroke-linecap="round" stroke-linejoin="round"/>
</svg>
