<svg width="13" height="13" viewBox="0 0 13 13" fill="none" xmlns="http://www.w3.org/2000/svg">
<path fill-rule="evenodd" clip-rule="evenodd" d="M2.71945 2.344C2.62901 1.78846 2.14745 1.38028 1.58247 1.38028H1.07732C0.695646 1.38028 0.38623 1.07205 0.38623 0.691847C0.38623 0.311639 0.695646 0.00341797 1.07732 0.00341797H1.58247C2.72684 0.00341797 3.71567 0.764647 4.02059 1.83923H11.8807C12.3897 1.83923 12.8061 2.25128 12.762 2.75631C12.6504 4.03532 12.3247 5.12394 12.0206 5.8673C11.798 6.41143 11.3281 6.80017 10.75 6.91761C10.1468 7.04018 9.22671 7.16435 7.97432 7.16435C7.07768 7.16435 6.32225 7.1007 5.7235 7.01957C5.38716 6.97399 5.08441 6.85185 4.82429 6.67217L4.96398 7.53033C5.05442 8.08586 5.53599 8.49405 6.10097 8.49405H11.2134C11.5951 8.49405 11.9045 8.80227 11.9045 9.1825C11.9045 9.56269 11.5951 9.87093 11.2134 9.87093H6.10097C4.85803 9.87093 3.79857 8.97294 3.59962 7.75072L2.71945 2.344ZM5.08893 12.3898C5.65848 12.3898 6.12019 11.9299 6.12019 11.3625C6.12019 10.7952 5.65848 10.3352 5.08893 10.3352C4.51939 10.3352 4.05769 10.7952 4.05769 11.3625C4.05769 11.9299 4.51939 12.3898 5.08893 12.3898ZM12.2447 11.3625C12.2447 11.9299 11.783 12.3898 11.2134 12.3898C10.6439 12.3898 10.1822 11.9299 10.1822 11.3625C10.1822 10.7952 10.6439 10.3352 11.2134 10.3352C11.783 10.3352 12.2447 10.7952 12.2447 11.3625Z" fill="white"/>
</svg>
