<svg width="40" height="40" viewBox="0 0 40 40" fill="none" xmlns="http://www.w3.org/2000/svg">
<path fill-rule="evenodd" clip-rule="evenodd" d="M10.25 8.66671H30.0833C30.4591 8.66671 30.8194 8.81596 31.0851 9.08164C31.3507 9.34732 31.5 9.70765 31.5 10.0834V29.9167C31.5 30.2924 31.3507 30.6528 31.0851 30.9184C30.8194 31.1841 30.4591 31.3334 30.0833 31.3334H10.25C9.87428 31.3334 9.51394 31.1841 9.24827 30.9184C8.98259 30.6528 8.83333 30.2924 8.83333 29.9167V10.0834C8.83333 9.70765 8.98259 9.34732 9.24827 9.08164C9.51394 8.81596 9.87428 8.66671 10.25 8.66671ZM6 10.0834C6 8.9562 6.44777 7.8752 7.2448 7.07817C8.04183 6.28114 9.12283 5.83337 10.25 5.83337H30.0833C31.2105 5.83337 32.2915 6.28114 33.0885 7.07817C33.8856 7.8752 34.3333 8.9562 34.3333 10.0834V29.9167C34.3333 31.0439 33.8856 32.1249 33.0885 32.9219C32.2915 33.7189 31.2105 34.1667 30.0833 34.1667H10.25C9.12283 34.1667 8.04183 33.7189 7.2448 32.9219C6.44777 32.1249 6 31.0439 6 29.9167V10.0834ZM20.1667 20C16.2553 20 13.0833 16.1949 13.0833 11.5H15.9167C15.9167 15.1352 18.2825 17.1667 20.1667 17.1667C22.0508 17.1667 24.4167 15.1352 24.4167 11.5H27.25C27.25 16.1949 24.0781 20 20.1667 20Z" fill="white"/>
</svg>
